<?xml version="1.0" encoding="utf-8"?>
<svg viewBox="-105.7534 -182.3949 615.3312 622.3826" width="615.331" height="622.383" xmlns="http://www.w3.org/2000/svg">
  <g transform="matrix(0.10000000149011612, 0, 0, -0.10000000149011612, -304.82464599609375, 637.5497436523438)" fill="#fff" stroke="none">
    <path d="M7602 8180 c-78 -26 -153 -86 -205 -165 -22 -33 -94 -159 -160 -280 -66 -121 -235 -429 -377 -685 -141 -256 -321 -582 -400 -725 -237 -431 -245 -445 -257 -445 -15 0 -6 -13 -155 245 -350 607 -465 811 -738 1298 -113 202 -208 367 -213 367 -4 0 -6 -359 -5 -797 l3 -798 49 -85 c27 -47 82 -139 121 -205 67 -112 334 -573 432 -746 24 -42 43 -85 43 -94 0 -28 -113 -239 -565 -1050 -40 -71 -132 -242 -205 -380 -73 -137 -155 -284 -183 -325 -185 -278 -416 -453 -704 -532 -67 -19 -104 -22 -268 -22 -221 0 -286 13 -442 88 -120 58 -192 108 -278 192 -145 142 -244 307 -309 514 -70 225 -149 313 -318 356 -178 46 -352 -36 -435 -203 -32 -65 -37 -86 -41 -162 -7 -140 9 -182 190 -499 156 -274 236 -388 373 -530 208 -218 472 -373 794 -466 184 -54 290 -69 481 -69 204 0 295 12 477 64 412 117 745 351 1009 709 86 117 154 231 544 920 330 581 329 580 343 580 15 0 34 -30 164 -254 58 -100 142 -244 188 -321 45 -77 127 -219 182 -315 108 -188 159 -275 385 -665 80 -138 178 -313 219 -390 111 -212 209 -300 357 -324 129 -21 253 20 341 114 77 81 106 150 105 250 -2 131 25 80 -529 1040 -89 154 -217 377 -285 495 -172 301 -340 593 -425 740 -40 69 -114 196 -164 282 -50 87 -91 165 -91 174 0 17 33 81 130 254 26 47 137 245 245 440 109 195 235 420 280 500 45 80 117 208 160 285 43 77 117 208 163 290 118 208 353 628 423 756 76 139 96 208 81 285 -26 128 -101 228 -211 281 -76 38 -224 43 -319 13z"/>
    <path d="M4000 6313 c0 -1070 -4 -1941 -10 -2024 -32 -502 -229 -813 -568 -900 -41 -10 -90 -19 -109 -19 -18 0 -33 -4 -33 -9 0 -13 82 -84 144 -124 62 -41 189 -91 274 -107 89 -18 199 -8 312 29 113 36 197 84 294 168 205 175 379 497 426 786 6 40 10 778 10 2070 l0 2007 -370 0 -370 0 0 -1877z"/>
  </g>
</svg>
